<svg xmlns="http://www.w3.org/2000/svg" width="666" height="718" viewBox="0 0 666 718" style="background-color: rgb(255, 255, 255);"><defs><style>@import url('https://fonts.googleapis.com/css2?family=Handlee&amp;family=Inter:wght@400;700&amp;family=Source+Code+Pro:wght@400;700&amp;family=Caveat:wght@400;700&amp;family=Poppins:wght@400;700&amp;family=Merriweather:wght@400;700&amp;family=Permanent+Marker&amp;family=JetBrains+Mono:wght@400;700&amp;display=swap');</style></defs><g transform="translate(143, -96)"><g opacity="1"><rect x="100" y="100" width="180" height="120" fill="none" stroke="#000000" stroke-width="4"/><text x="190" y="126.8" font-size="28" font-family="Handlee, cursive" font-weight="bold" fill="#000000" text-anchor="middle" dominant-baseline="central">Client</text><line x1="100" y1="153.6" x2="280" y2="153.6" stroke="#000000" stroke-width="4"/><line x1="100" y1="173.6" x2="280" y2="173.6" stroke="#000000" stroke-width="4"/><text x="110" y="183.6" font-size="25.2" font-family="Handlee, cursive" fill="#000000" text-anchor="start" dominant-baseline="hanging">order()</text></g><g opacity="1"><rect x="89.5" y="370" width="201" height="120" fill="none" stroke="#000000" stroke-width="4"/><text x="190" y="396.8" font-size="28" font-family="Handlee, cursive" font-weight="bold" fill="#000000" text-anchor="middle" dominant-baseline="central">OrderFacade</text><line x1="89.5" y1="423.6" x2="290.5" y2="423.6" stroke="#000000" stroke-width="4"/><line x1="89.5" y1="443.6" x2="290.5" y2="443.6" stroke="#000000" stroke-width="4"/><text x="99.5" y="453.6" font-size="25.2" font-family="Handlee, cursive" fill="#000000" text-anchor="start" dominant-baseline="hanging">placeOrder(cart)</text></g><g opacity="1"><rect x="-139" y="640" width="180" height="120" fill="none" stroke="#000000" stroke-width="4"/><text x="-49" y="666.8" font-size="28" font-family="Handlee, cursive" font-weight="bold" fill="#000000" text-anchor="middle" dominant-baseline="central">Inventory</text><line x1="-139" y1="693.6" x2="41" y2="693.6" stroke="#000000" stroke-width="4"/><line x1="-139" y1="713.6" x2="41" y2="713.6" stroke="#000000" stroke-width="4"/><text x="-129" y="723.6" font-size="25.2" font-family="Handlee, cursive" fill="#000000" text-anchor="start" dominant-baseline="hanging">reserve(items)</text></g><g opacity="1"><rect x="96" y="640" width="180" height="120" fill="none" stroke="#000000" stroke-width="4"/><text x="186" y="666.8" font-size="28" font-family="Handlee, cursive" font-weight="bold" fill="#000000" text-anchor="middle" dominant-baseline="central">Payment</text><line x1="96" y1="693.6" x2="276" y2="693.6" stroke="#000000" stroke-width="4"/><line x1="96" y1="713.6" x2="276" y2="713.6" stroke="#000000" stroke-width="4"/><text x="106" y="723.6" font-size="25.2" font-family="Handlee, cursive" fill="#000000" text-anchor="start" dominant-baseline="hanging">charge(total)</text></g><g opacity="1"><rect x="331" y="640" width="188" height="120" fill="none" stroke="#000000" stroke-width="4"/><text x="425" y="666.8" font-size="28" font-family="Handlee, cursive" font-weight="bold" fill="#000000" text-anchor="middle" dominant-baseline="central">Shipping</text><line x1="331" y1="693.6" x2="519" y2="693.6" stroke="#000000" stroke-width="4"/><line x1="331" y1="713.6" x2="519" y2="713.6" stroke="#000000" stroke-width="4"/><text x="341" y="723.6" font-size="25.2" font-family="Handlee, cursive" fill="#000000" text-anchor="start" dominant-baseline="hanging">dispatch(order)</text></g><g opacity="1"><g><path d="M 190 220 C 190 295, 190 295, 190 370" fill="none" stroke="#000000" stroke-width="4" stroke-linecap="round"/><g><path d="M188.89416500739753 370.2390720862895 C185.85375032606638 362.1275167987502, 181.27774620107476 355.68289244229095, 174.61513629369438 344.9953216153053 M189.03740164730698 370.41491715516895 C185.75388123989086 361.89199817674364, 179.60153350066375 352.84959623327745, 175.1027320632711 345.73071485355916" stroke="#000000" stroke-width="4" fill="none"/></g><g><path d="M188.89416500739753 370.2390720862895 C194.9466518684766 361.9252420337132, 199.46354928589528 355.4806176772539, 202.61513629369438 344.9953216153053 M189.03740164730698 370.41491715516895 C195.15228088237325 362.127356663776, 198.39833278562853 353.08495472030984, 203.1027320632711 345.73071485355916" stroke="#000000" stroke-width="4" fill="none"/></g></g><text x="190" y="295" fill="#000000" font-family="Handlee, cursive" font-size="28px" text-anchor="middle" dominant-baseline="central">uses</text></g><g opacity="1"><path d="M 129.7 490 C 129.7 565, 4.111 565, 4.111 640" fill="none" stroke="#000000" stroke-width="4" stroke-linecap="round" stroke-dasharray="10 10"/><g><path d="M6.110600785455773 641.3660702910274 C1.8836102504515817 634.069267726847, -3.7253335362067643 626.4409442956728, -8.055997474946903 615.2527310873237 M4.266800867497096 639.3002305077389 C0.544410446048103 635.9651541615799, -1.0281241991144192 629.5521948650589, -10.657146496594773 615.1883071229648" stroke="#000000" stroke-width="4" fill="none" stroke-dasharray="10 10"/></g><g><path d="M6.110600785455773 641.3660702910274 C9.579177434020654 634.1752269999394, 11.665800830931378 626.5469035687652, 19.944002525053087 615.2527310873237 M4.266800867497096 639.3002305077389 C6.320483414218147 635.927298645988, 10.52402173722567 629.514339349467, 17.342853503405216 615.1883071229648" stroke="#000000" stroke-width="4" fill="none" stroke-dasharray="10 10"/></g></g><g opacity="1"><path d="M 190 490 C 190 565, 186.889 565, 186.889 640" fill="none" stroke="#000000" stroke-width="4" stroke-linecap="round" stroke-dasharray="10 10"/><g><path d="M185.50615491987102 638.0485815387219 C181.69477033412963 632.75812579943, 178.35884944724796 622.7356910179768, 173.11511107803219 615.7225808302727 M187.0213541312971 640.2297162869945 C184.33901160569482 635.5462401033611, 181.5993223168477 628.7011259532626, 173.77645733197116 615.567604718436" stroke="#000000" stroke-width="4" fill="none" stroke-dasharray="10 10"/></g><g><path d="M185.50615491987102 638.0485815387219 C190.6105141951045 632.6063053188673, 196.1903371691978 622.5838705374141, 201.11511107803219 615.7225808302727 M187.0213541312971 640.2297162869945 C190.27880322211976 635.6690377025353, 193.47890554969752 628.8239235524368, 201.77645733197116 615.567604718436" stroke="#000000" stroke-width="4" fill="none" stroke-dasharray="10 10"/></g></g><g opacity="1"><path d="M 250.3 490 C 250.3 565, 372.778 565, 372.778 640" fill="none" stroke="#000000" stroke-width="4" stroke-linecap="round" stroke-dasharray="10 10"/><g><path d="M372.7246037421541 641.2361264098436 C370.6602692872322 633.5646666951568, 364.34777752180014 629.3747392075877, 358.79986742118166 614.0404654431012 M372.6563553314449 640.8170930659398 C367.9324552984613 630.902803065371, 362.72891769704256 622.9392154596267, 359.43958578517453 615.8856137429219" stroke="#000000" stroke-width="4" fill="none" stroke-dasharray="10 10"/></g><g><path d="M372.7246037421541 641.2361264098436 C377.1709998931772 633.7938711335228, 377.36923873369017 629.6039436459537, 386.79986742118166 614.0404654431012 M372.6563553314449 640.8170930659398 C377.5236510967541 631.0062513883452, 381.91130929362805 623.0426637826008, 387.43958578517453 615.8856137429219" stroke="#000000" stroke-width="4" fill="none" stroke-dasharray="10 10"/></g></g></g><text x="333" y="699" text-anchor="middle" font-family="Handlee, cursive" font-size="16" fill="#9aa4b0">Made with yappydraw.com by Algorisys Technologies</text></svg>