<svg xmlns="http://www.w3.org/2000/svg" width="471.20000000000005" height="700" viewBox="-66.60000000000002 0 471.20000000000005 700" style="background-color: rgb(255, 255, 255);"><defs><style>@import url('https://fonts.googleapis.com/css2?family=Handlee&amp;family=Inter:wght@400;700&amp;family=Source+Code+Pro:wght@400;700&amp;family=Caveat:wght@400;700&amp;family=Poppins:wght@400;700&amp;family=Merriweather:wght@400;700&amp;family=Permanent+Marker&amp;family=JetBrains+Mono:wght@400;700&amp;display=swap');</style></defs><g transform="translate(-21, -96)"><g opacity="1"><rect x="100" y="100" width="180" height="120" fill="none" stroke="#000000" stroke-width="4"/><text x="190" y="126.8" font-size="28" font-family="Handlee, cursive" font-weight="bold" fill="#000000" text-anchor="middle" dominant-baseline="central">Requirement</text><line x1="100" y1="153.6" x2="280" y2="153.6" stroke="#000000" stroke-width="4"/><line x1="100" y1="173.6" x2="280" y2="173.6" stroke="#000000" stroke-width="4"/><text x="110" y="183.6" font-size="25.2" font-family="Handlee, cursive" fill="#000000" text-anchor="start" dominant-baseline="hanging">solve()</text></g><g opacity="1"><rect x="25" y="340" width="330" height="162" fill="none" stroke="#000000" stroke-width="4"/><text x="190" y="366.8" font-size="28" font-family="Handlee, cursive" font-weight="bold" fill="#000000" text-anchor="middle" dominant-baseline="central">Complex 'Optimized' Code</text><line x1="25" y1="393.6" x2="355" y2="393.6" stroke="#000000" stroke-width="4"/><line x1="25" y1="494.32000000000005" x2="355" y2="494.32000000000005" stroke="#000000" stroke-width="4"/><text x="35" y="403.6" font-size="25.2" font-family="Handlee, cursive" fill="#000000" text-anchor="start" dominant-baseline="hanging">-caches</text><text x="35" y="433.84000000000003" font-size="25.2" font-family="Handlee, cursive" fill="#000000" text-anchor="start" dominant-baseline="hanging">-bit tricks</text><text x="35" y="464.08000000000004" font-size="25.2" font-family="Handlee, cursive" fill="#000000" text-anchor="start" dominant-baseline="hanging">-unmeasured</text></g><g opacity="1"><rect x="76" y="622" width="228" height="120" fill="none" stroke="#000000" stroke-width="4"/><text x="190" y="648.8" font-size="28" font-family="Handlee, cursive" font-weight="bold" fill="#000000" text-anchor="middle" dominant-baseline="central">Profiler (skipped)</text><line x1="76" y1="675.6" x2="304" y2="675.6" stroke="#000000" stroke-width="4"/><line x1="76" y1="695.6" x2="304" y2="695.6" stroke="#000000" stroke-width="4"/><text x="86" y="705.6" font-size="25.2" font-family="Handlee, cursive" fill="#000000" text-anchor="start" dominant-baseline="hanging">measure()</text></g><g opacity="1"><g><path d="M 190 220 C 190 280, 190 280, 190 340" fill="none" stroke="#000000" stroke-width="4" stroke-linecap="round"/><g><path d="M190.83984833210707 340.3188391402364 C184.89226790082847 331.07530290964644, 182.1341843196491 327.05371132358215, 177.62043719738722 315.87524377245876 M190.80899611487985 339.0514613650739 C185.36037880578596 333.6634214372016, 181.85795457684952 326.52743247766324, 176.60208371654153 314.9343698701677" stroke="#000000" stroke-width="4" fill="none"/></g><g><path d="M190.83984833210707 340.3188391402364 C192.95600862962402 331.0424923695962, 198.26166577724015 327.0209007835319, 205.62043719738722 315.87524377245876 M190.80899611487985 339.0514613650739 C192.9702055866416 333.912343014983, 197.07760813856083 326.77635405544464, 204.60208371654153 314.9343698701677" stroke="#000000" stroke-width="4" fill="none"/></g></g><text x="190" y="246.4" fill="#000000" font-family="Handlee, cursive" font-size="28px" text-anchor="middle" dominant-baseline="central">optimize</text><text x="190" y="280" fill="#000000" font-family="Handlee, cursive" font-size="28px" text-anchor="middle" dominant-baseline="central">before</text><text x="190" y="313.6" fill="#000000" font-family="Handlee, cursive" font-size="28px" text-anchor="middle" dominant-baseline="central">measuring</text></g><g opacity="1"><g><path d="M 190 502 C 190 562, 190 562, 190 622" fill="none" stroke="#000000" stroke-width="4" stroke-linecap="round"/><g><path d="M188.0170169081539 621.4231734964997 C184.74334584281868 612.0233451222387, 178.209809288877 602.5152063041628, 174.47694345377386 598.2887458118465 M189.6234769867733 622.857628534548 C186.76904938547528 615.8747832801023, 181.5757292100287 608.3769480527037, 175.0162005769089 596.7693366628927" stroke="#000000" stroke-width="4" fill="none"/></g><g><path d="M188.0170169081539 621.4231734964997 C194.91175507226117 612.1742588720601, 198.546627747762 602.6661200539843, 202.47694345377386 598.2887458118465 M189.6234769867733 622.857628534548 C194.5985967717192 615.8651680955493, 197.2348239825166 608.3673328681507, 203.0162005769089 596.7693366628927" stroke="#000000" stroke-width="4" fill="none"/></g></g><text x="190" y="494.8" fill="#000000" font-family="Handlee, cursive" font-size="28px" text-anchor="middle" dominant-baseline="central">the</text><text x="190" y="528.4" fill="#000000" font-family="Handlee, cursive" font-size="28px" text-anchor="middle" dominant-baseline="central">real</text><text x="190" y="562" fill="#000000" font-family="Handlee, cursive" font-size="28px" text-anchor="middle" dominant-baseline="central">bottleneck</text><text x="190" y="595.6" fill="#000000" font-family="Handlee, cursive" font-size="28px" text-anchor="middle" dominant-baseline="central">was</text><text x="190" y="629.2" fill="#000000" font-family="Handlee, cursive" font-size="28px" text-anchor="middle" dominant-baseline="central">elsewhere</text></g></g><text x="169" y="681" text-anchor="middle" font-family="Handlee, cursive" font-size="16" fill="#9aa4b0">Made with yappydraw.com by Algorisys Technologies</text></svg>