<svg xmlns="http://www.w3.org/2000/svg" width="471.20000000000005" height="700" viewBox="-110.60000000000002 0 471.20000000000005 700" style="background-color: rgb(255, 255, 255);"><defs><style>@import url('https://fonts.googleapis.com/css2?family=Handlee&amp;family=Inter:wght@400;700&amp;family=Source+Code+Pro:wght@400;700&amp;family=Caveat:wght@400;700&amp;family=Poppins:wght@400;700&amp;family=Merriweather:wght@400;700&amp;family=Permanent+Marker&amp;family=JetBrains+Mono:wght@400;700&amp;display=swap');</style></defs><g transform="translate(-80, -80)"><g opacity="1"><rect x="100" y="100" width="210" height="120" fill="none" stroke="#000000" stroke-width="4"/><text x="205" y="126.8" font-size="28" font-family="Handlee, cursive" font-weight="bold" fill="#000000" text-anchor="middle" dominant-baseline="central">Session / UoW</text><line x1="100" y1="153.6" x2="310" y2="153.6" stroke="#000000" stroke-width="4"/><line x1="100" y1="173.6" x2="310" y2="173.6" stroke="#000000" stroke-width="4"/><text x="110" y="183.6" font-size="25.2" font-family="Handlee, cursive" fill="#000000" text-anchor="start" dominant-baseline="hanging">get(id)</text></g><g opacity="1"><rect x="115" y="345" width="180" height="120" fill="none" stroke="#000000" stroke-width="4"/><text x="205" y="371.8" font-size="28" font-family="Handlee, cursive" font-weight="bold" fill="#000000" text-anchor="middle" dominant-baseline="central">Identity Map</text><line x1="115" y1="398.6" x2="295" y2="398.6" stroke="#000000" stroke-width="4"/><line x1="115" y1="438.84000000000003" x2="295" y2="438.84000000000003" stroke="#000000" stroke-width="4"/><text x="125" y="408.6" font-size="25.2" font-family="Handlee, cursive" fill="#000000" text-anchor="start" dominant-baseline="hanging">-byId: Map</text></g><g opacity="1"><rect x="115" y="590" width="180" height="120" fill="none" stroke="#000000" stroke-width="4"/><text x="205" y="616.8" font-size="28" font-family="Handlee, cursive" font-weight="bold" fill="#000000" text-anchor="middle" dominant-baseline="central">Database</text><line x1="115" y1="643.6" x2="295" y2="643.6" stroke="#000000" stroke-width="4"/><line x1="115" y1="663.6" x2="295" y2="663.6" stroke="#000000" stroke-width="4"/><text x="125" y="673.6" font-size="25.2" font-family="Handlee, cursive" fill="#000000" text-anchor="start" dominant-baseline="hanging">load(id)</text></g><g opacity="1"><g><path d="M 205 220 C 205 282.5, 205 282.5, 205 345" fill="none" stroke="#000000" stroke-width="4" stroke-linecap="round"/><g><path d="M203.70906543545425 346.2976348120719 C199.6494140634365 341.311873082457, 198.8074530329607 333.7835805636344, 190.2798263411969 321.2486046093372 M204.93549795541912 345.4218060364947 C200.5545251712113 335.0815380349759, 194.32174203972366 326.3440439938202, 191.97759829554707 320.3986130465609" stroke="#000000" stroke-width="4" fill="none"/></g><g><path d="M203.70906543545425 346.2976348120719 C206.23724020477903 341.04327497450066, 211.98310531564576 333.5149824556781, 218.2798263411969 321.2486046093372 M204.93549795541912 345.4218060364947 C211.66569169349071 335.2459501677382, 216.5440750842824 326.50845612658253, 219.97759829554707 320.3986130465609" stroke="#000000" stroke-width="4" fill="none"/></g></g><text x="215" y="282.5" fill="#000000" font-family="Handlee, cursive" font-size="28px" text-anchor="start" dominant-baseline="central">get(id)</text></g><g opacity="1"><g><path d="M 205 465 C 205 527.5, 205 527.5, 205 590" fill="none" stroke="#000000" stroke-width="4" stroke-linecap="round"/><g><path d="M204.67696687951684 588.8682411573827 C201.01402972279683 580.681344598415, 193.64936360618668 571.7067339776729, 192.8993166424334 567.6649355969247 M205.5395405124873 590.1600782740861 C198.9989372943921 580.9589449506459, 194.9207278528644 571.793115609143, 191.0455064009875 566.3907707619336" stroke="#000000" stroke-width="4" fill="none"/></g><g><path d="M204.67696687951684 588.8682411573827 C210.6618588031699 580.7263464675422, 212.94502176693277 571.7517358468001, 220.8993166424334 567.6649355969247 M205.5395405124873 590.1600782740861 C209.70844639217685 580.8547749299016, 216.33974604843388 571.6889455883987, 219.0455064009875 566.3907707619336" stroke="#000000" stroke-width="4" fill="none"/></g></g><text x="215" y="477.1" fill="#000000" font-family="Handlee, cursive" font-size="28px" text-anchor="start" dominant-baseline="central">miss</text><text x="215" y="510.70000000000005" fill="#000000" font-family="Handlee, cursive" font-size="28px" text-anchor="start" dominant-baseline="central">→</text><text x="215" y="544.3000000000001" fill="#000000" font-family="Handlee, cursive" font-size="28px" text-anchor="start" dominant-baseline="central">load</text><text x="215" y="577.9000000000001" fill="#000000" font-family="Handlee, cursive" font-size="28px" text-anchor="start" dominant-baseline="central">once</text></g></g><text x="125" y="681" text-anchor="middle" font-family="Handlee, cursive" font-size="16" fill="#9aa4b0">Made with yappydraw.com by Algorisys Technologies</text></svg>