<svg xmlns="http://www.w3.org/2000/svg" width="471.20000000000005" height="700" viewBox="-110.60000000000002 0 471.20000000000005 700" style="background-color: rgb(255, 255, 255);"><defs><style>@import url('https://fonts.googleapis.com/css2?family=Handlee&amp;family=Inter:wght@400;700&amp;family=Source+Code+Pro:wght@400;700&amp;family=Caveat:wght@400;700&amp;family=Poppins:wght@400;700&amp;family=Merriweather:wght@400;700&amp;family=Permanent+Marker&amp;family=JetBrains+Mono:wght@400;700&amp;display=swap');</style></defs><g transform="translate(-80, -80)"><g opacity="1"><rect x="100" y="100" width="210" height="120" fill="none" stroke="#000000" stroke-width="4"/><text x="205" y="126.8" font-size="28" font-family="Handlee, cursive" font-weight="bold" fill="#000000" text-anchor="middle" dominant-baseline="central">Session / UoW</text><line x1="100" y1="153.6" x2="310" y2="153.6" stroke="#000000" stroke-width="4"/><line x1="100" y1="173.6" x2="310" y2="173.6" stroke="#000000" stroke-width="4"/><text x="110" y="183.6" font-size="25.2" font-family="Handlee, cursive" fill="#000000" text-anchor="start" dominant-baseline="hanging">get(id)</text></g><g opacity="1"><rect x="115" y="345" width="180" height="120" fill="none" stroke="#000000" stroke-width="4"/><text x="205" y="371.8" font-size="28" font-family="Handlee, cursive" font-weight="bold" fill="#000000" text-anchor="middle" dominant-baseline="central">Identity Map</text><line x1="115" y1="398.6" x2="295" y2="398.6" stroke="#000000" stroke-width="4"/><line x1="115" y1="438.84000000000003" x2="295" y2="438.84000000000003" stroke="#000000" stroke-width="4"/><text x="125" y="408.6" font-size="25.2" font-family="Handlee, cursive" fill="#000000" text-anchor="start" dominant-baseline="hanging">-byId: Map</text></g><g opacity="1"><rect x="115" y="590" width="180" height="120" fill="none" stroke="#000000" stroke-width="4"/><text x="205" y="616.8" font-size="28" font-family="Handlee, cursive" font-weight="bold" fill="#000000" text-anchor="middle" dominant-baseline="central">Database</text><line x1="115" y1="643.6" x2="295" y2="643.6" stroke="#000000" stroke-width="4"/><line x1="115" y1="663.6" x2="295" y2="663.6" stroke="#000000" stroke-width="4"/><text x="125" y="673.6" font-size="25.2" font-family="Handlee, cursive" fill="#000000" text-anchor="start" dominant-baseline="hanging">load(id)</text></g><g opacity="1"><g><path d="M 205 220 C 205 282.5, 205 282.5, 205 345" fill="none" stroke="#000000" stroke-width="4" stroke-linecap="round"/><g><path d="M203.31393437832594 344.9263761714101 C197.50226619266974 333.6687955994084, 194.13310651877032 324.79187071195236, 192.56688194721937 319.7097629203317 M205.42093494907022 345.95092656835914 C200.6000745345005 337.2157534397939, 196.42862958126747 329.4181982317913, 190.200194273144 321.32904762838456" stroke="#000000" stroke-width="4" fill="none"/></g><g><path d="M203.31393437832594 344.9263761714101 C208.67077324264753 333.78006729564805, 216.4701206187259 324.903142408192, 220.56688194721937 319.7097629203317 M205.42093494907022 345.95092656835914 C209.71320307889067 337.1998225939074, 214.6548866700479 329.4022673859048, 218.200194273144 321.32904762838456" stroke="#000000" stroke-width="4" fill="none"/></g></g><text x="215" y="282.5" fill="#000000" font-family="Handlee, cursive" font-size="28px" text-anchor="start" dominant-baseline="central">get(id)</text></g><g opacity="1"><g><path d="M 205 465 C 205 527.5, 205 527.5, 205 590" fill="none" stroke="#000000" stroke-width="4" stroke-linecap="round"/><g><path d="M206.14126806519926 588.1507752332836 C200.5966841210427 582.9253190326231, 194.1699979974704 574.3136784235401, 191.87123416922987 565.0958715888527 M204.3476203577593 590.9822893990204 C202.0677595687486 585.4911233538397, 197.98318892898186 579.9280468981915, 191.46896400023252 565.1125439178985" stroke="#000000" stroke-width="4" fill="none"/></g><g><path d="M206.14126806519926 588.1507752332836 C209.99769490368686 582.8686904196354, 212.97201956275873 574.2570498105524, 219.87123416922987 565.0958715888527 M204.3476203577593 590.9822893990204 C208.17304156435802 585.261435604804, 210.19375292020067 579.6983591491557, 219.46896400023252 565.1125439178985" stroke="#000000" stroke-width="4" fill="none"/></g></g><text x="215" y="477.1" fill="#000000" font-family="Handlee, cursive" font-size="28px" text-anchor="start" dominant-baseline="central">miss</text><text x="215" y="510.70000000000005" fill="#000000" font-family="Handlee, cursive" font-size="28px" text-anchor="start" dominant-baseline="central">→</text><text x="215" y="544.3000000000001" fill="#000000" font-family="Handlee, cursive" font-size="28px" text-anchor="start" dominant-baseline="central">load</text><text x="215" y="577.9000000000001" fill="#000000" font-family="Handlee, cursive" font-size="28px" text-anchor="start" dominant-baseline="central">once</text></g></g><text x="125" y="681" text-anchor="middle" font-family="Handlee, cursive" font-size="16" fill="#9aa4b0">Made with yappydraw.com by Algorisys Technologies</text></svg>