<svg xmlns="http://www.w3.org/2000/svg" width="680" height="450" viewBox="0 0 680 450" style="background-color: rgb(255, 255, 255);"><defs><style>@import url('https://fonts.googleapis.com/css2?family=Handlee&amp;family=Inter:wght@400;700&amp;family=Source+Code+Pro:wght@400;700&amp;family=Caveat:wght@400;700&amp;family=Poppins:wght@400;700&amp;family=Merriweather:wght@400;700&amp;family=Permanent+Marker&amp;family=JetBrains+Mono:wght@400;700&amp;display=swap');</style></defs><g transform="translate(150, -80)"><g opacity="1"><rect x="100" y="100" width="180" height="120" fill="none" stroke="#000000" stroke-width="4"/><text x="190" y="126.8" font-size="28" font-family="Handlee, cursive" font-weight="bold" fill="#000000" text-anchor="middle" dominant-baseline="central">Provider</text><line x1="100" y1="153.6" x2="280" y2="153.6" stroke="#000000" stroke-width="4"/><line x1="100" y1="193.83999999999997" x2="280" y2="193.83999999999997" stroke="#000000" stroke-width="4"/><text x="110" y="163.6" font-size="25.2" font-family="Handlee, cursive" fill="#000000" text-anchor="start" dominant-baseline="hanging">-value</text></g><g opacity="1"><rect x="-130" y="340" width="180" height="120" fill="none" stroke="#000000" stroke-width="4"/><text x="-40" y="366.8" font-size="28" font-family="Handlee, cursive" font-weight="bold" fill="#000000" text-anchor="middle" dominant-baseline="central">Consumer A</text><line x1="-130" y1="393.6" x2="50" y2="393.6" stroke="#000000" stroke-width="4"/><line x1="-130" y1="413.6" x2="50" y2="413.6" stroke="#000000" stroke-width="4"/><text x="-120" y="423.6" font-size="25.2" font-family="Handlee, cursive" fill="#000000" text-anchor="start" dominant-baseline="hanging">use(value)</text></g><g opacity="1"><rect x="100" y="340" width="180" height="120" fill="none" stroke="#000000" stroke-width="4"/><text x="190" y="366.8" font-size="28" font-family="Handlee, cursive" font-weight="bold" fill="#000000" text-anchor="middle" dominant-baseline="central">Consumer B</text><line x1="100" y1="393.6" x2="280" y2="393.6" stroke="#000000" stroke-width="4"/><line x1="100" y1="413.6" x2="280" y2="413.6" stroke="#000000" stroke-width="4"/><text x="110" y="423.6" font-size="25.2" font-family="Handlee, cursive" fill="#000000" text-anchor="start" dominant-baseline="hanging">use(value)</text></g><g opacity="1"><rect x="330" y="340" width="180" height="120" fill="none" stroke="#000000" stroke-width="4"/><text x="420" y="366.8" font-size="28" font-family="Handlee, cursive" font-weight="bold" fill="#000000" text-anchor="middle" dominant-baseline="central">Consumer C</text><line x1="330" y1="393.6" x2="510" y2="393.6" stroke="#000000" stroke-width="4"/><line x1="330" y1="413.6" x2="510" y2="413.6" stroke="#000000" stroke-width="4"/><text x="340" y="423.6" font-size="25.2" font-family="Handlee, cursive" fill="#000000" text-anchor="start" dominant-baseline="hanging">use(value)</text></g><g opacity="1"><g><path d="M 136 220 C 136 280, 17.5 280, 17.5 340" fill="none" stroke="#000000" stroke-width="4" stroke-linecap="round"/><g><path d="M19.185048386454582 338.97066254913807 C20.494509886188546 330.8758087756937, 21.174585642756774 324.93896945088915, 24.247081186065373 314.2095352839865 M17.162100292742252 339.2432309612632 C19.731300441456963 330.75799603366386, 21.2913023273749 322.5778915714275, 23.795947390982803 313.5301128532924" stroke="#000000" stroke-width="4" fill="none"/></g><g><path d="M19.185048386454582 338.97066254913807 C26.00164092638638 336.39193767957187, 32.29649599205391 335.99969292250285, 44.17019897865315 333.88361410416695 M17.162100292742252 339.2432309612632 C26.22648822151094 337.03073405145267, 34.236924107642096 335.2204331644268, 43.71906518357058 333.20419167347285" stroke="#000000" stroke-width="4" fill="none"/></g></g><text x="146" y="280" fill="#000000" font-family="Handlee, cursive" font-size="28px" text-anchor="start" dominant-baseline="central">provides</text></g><g opacity="1"><path d="M 190 220 C 190 280, 190 280, 190 340" fill="none" stroke="#000000" stroke-width="4" stroke-linecap="round"/><g><path d="M188.48984796367586 339.45105459727347 C186.23983396919 331.86998305539555, 180.12599325304407 319.62244008116335, 177.31774354539812 316.54996860649857 M190.18201492447406 340.0424192873761 C184.81610080349023 331.0032745105783, 179.3151327724638 322.5316758614239, 175.05337072629482 315.0096176710767" stroke="#000000" stroke-width="4" fill="none"/></g><g><path d="M188.48984796367586 339.45105459727347 C197.23701577627588 331.9251741933725, 202.1203568672158 319.6776312191403, 205.31774354539812 316.54996860649857 M190.18201492447406 340.0424192873761 C194.72537709410065 331.0529728602255, 199.13368535368465 322.5813742110711, 203.05337072629482 315.0096176710767" stroke="#000000" stroke-width="4" fill="none"/></g></g><g opacity="1"><path d="M 244 220 C 244 280, 362.5 280, 362.5 340" fill="none" stroke="#000000" stroke-width="4" stroke-linecap="round"/><g><path d="M362.06263443268836 339.9267002996057 C354.7191616136201 335.34477935465105, 344.2532243176953 336.52847391153097, 337.46996379663983 331.57993862211737 M363.23385846894234 340.08215431589633 C354.39133541043697 337.79446687796536, 347.5286861093914 335.3138693492215, 335.8273194592614 333.4951290273297" stroke="#000000" stroke-width="4" fill="none"/></g><g><path d="M362.06263443268836 339.9267002996057 C361.82695609595174 328.4676707604562, 358.41022665635177 322.6902725592153, 357.3930815892276 311.9058598019369 M363.23385846894234 340.08215431589633 C360.10166917897675 332.1863923678792, 358.9730245238298 324.0434652513104, 355.7504372518492 313.82105020714926" stroke="#000000" stroke-width="4" fill="none"/></g></g></g><text x="340" y="431" text-anchor="middle" font-family="Handlee, cursive" font-size="16" fill="#9aa4b0">Made with yappydraw.com by Algorisys Technologies</text></svg>