<svg xmlns="http://www.w3.org/2000/svg" width="471.20000000000005" height="750" viewBox="-0.6000000000000227 0 471.20000000000005 750" style="background-color: rgb(255, 255, 255);"><defs><style>@import url('https://fonts.googleapis.com/css2?family=Handlee&amp;family=Inter:wght@400;700&amp;family=Source+Code+Pro:wght@400;700&amp;family=Caveat:wght@400;700&amp;family=Poppins:wght@400;700&amp;family=Merriweather:wght@400;700&amp;family=Permanent+Marker&amp;family=JetBrains+Mono:wght@400;700&amp;display=swap');</style></defs><g transform="translate(45, -80)"><g opacity="1"><rect x="100" y="100" width="180" height="120" fill="none" stroke="#000000" stroke-width="4"/><text x="190" y="126.8" font-size="28" font-family="Handlee, cursive" font-weight="bold" fill="#000000" text-anchor="middle" dominant-baseline="central">Client</text><line x1="100" y1="153.6" x2="280" y2="153.6" stroke="#000000" stroke-width="4"/><line x1="100" y1="173.6" x2="280" y2="173.6" stroke="#000000" stroke-width="4"/><text x="110" y="183.6" font-size="25.2" font-family="Handlee, cursive" fill="#000000" text-anchor="start" dominant-baseline="hanging">use(shape)</text></g><g opacity="1"><rect x="100" y="370" width="180" height="120" fill="none" stroke="#000000" stroke-width="4"/><line x1="100" y1="433.6" x2="280" y2="433.6" stroke="#000000" stroke-width="4"/><text x="190" y="390.988" font-size="19.599999999999998" font-family="Handlee, cursive" font-weight="normal" font-style="italic" fill="#000000" text-anchor="middle" dominant-baseline="central">«interface»</text><text x="190" y="412.612" font-size="28" font-family="Handlee, cursive" font-weight="bold" fill="#000000" text-anchor="middle" dominant-baseline="central">Shape</text><text x="110" y="443.6" font-size="25.2" font-family="Handlee, cursive" fill="#000000" text-anchor="start" dominant-baseline="hanging">area()</text></g><g opacity="1"><rect x="-25" y="640" width="180" height="120" fill="none" stroke="#000000" stroke-width="4"/><text x="65" y="666.8" font-size="28" font-family="Handlee, cursive" font-weight="bold" fill="#000000" text-anchor="middle" dominant-baseline="central">Rectangle</text><line x1="-25" y1="693.6" x2="155" y2="693.6" stroke="#000000" stroke-width="4"/><line x1="-25" y1="713.6" x2="155" y2="713.6" stroke="#000000" stroke-width="4"/><text x="-15" y="723.6" font-size="25.2" font-family="Handlee, cursive" fill="#000000" text-anchor="start" dominant-baseline="hanging">area()</text></g><g opacity="1"><rect x="225" y="640" width="180" height="120" fill="none" stroke="#000000" stroke-width="4"/><text x="315" y="666.8" font-size="28" font-family="Handlee, cursive" font-weight="bold" fill="#000000" text-anchor="middle" dominant-baseline="central">Square</text><line x1="225" y1="693.6" x2="405" y2="693.6" stroke="#000000" stroke-width="4"/><line x1="225" y1="713.6" x2="405" y2="713.6" stroke="#000000" stroke-width="4"/><text x="235" y="723.6" font-size="25.2" font-family="Handlee, cursive" fill="#000000" text-anchor="start" dominant-baseline="hanging">area()</text></g><g opacity="1"><g><path d="M 190 220 C 190 295, 190 295, 190 370" fill="none" stroke="#000000" stroke-width="4" stroke-linecap="round" stroke-dasharray="10 10"/><g><path d="M190.20113758184016 371.1122130062431 C184.0735880479045 362.4842334346976, 179.12468269372505 350.4183006116078, 175.87632189132273 347.68530473363074 M189.33307143580168 370.6912775831297 C185.76751881455135 360.96090952719135, 180.28225365736586 353.18442709948016, 175.37302129995078 344.86245861806395" stroke="#000000" stroke-width="4" fill="none" stroke-dasharray="10 10"/></g><g><path d="M190.20113758184016 371.1122130062431 C195.20102195477259 362.22235967697014, 201.37955050746126 350.1564268538803, 203.87632189132273 347.68530473363074 M189.33307143580168 370.6912775831297 C195.411065021428 360.8370245183869, 199.56934607111913 353.0605420906757, 203.37302129995078 344.86245861806395" stroke="#000000" stroke-width="4" fill="none" stroke-dasharray="10 10"/></g></g><text x="200" y="295" fill="#000000" font-family="Handlee, cursive" font-size="28px" text-anchor="start" dominant-baseline="central">uses</text></g><g opacity="1"><path d="M 136 490 C 136 565, 92.77777777777779 565, 92.77777777777779 640" fill="none" stroke="#000000" stroke-width="4" stroke-linecap="round" stroke-dasharray="10 10"/><polygon points="136.00,490.00 115.83,509.42 142.74,517.18" fill="#ffffff" stroke="#000000" stroke-width="4"/></g><g opacity="1"><path d="M 244 490 C 244 565, 287.22222222222223 565, 287.22222222222223 640" fill="none" stroke="#000000" stroke-width="4" stroke-linecap="round" stroke-dasharray="10 10"/><polygon points="244.00,490.00 237.26,517.18 264.17,509.42" fill="#ffffff" stroke="#000000" stroke-width="4"/></g></g><text x="235" y="731" text-anchor="middle" font-family="Handlee, cursive" font-size="16" fill="#9aa4b0">Made with yappydraw.com by Algorisys Technologies</text></svg>