<svg xmlns="http://www.w3.org/2000/svg" width="768" height="658" viewBox="0 0 768 658" style="background-color: rgb(255, 255, 255);"><defs><style>@import url('https://fonts.googleapis.com/css2?family=Handlee&amp;family=Inter:wght@400;700&amp;family=Source+Code+Pro:wght@400;700&amp;family=Caveat:wght@400;700&amp;family=Poppins:wght@400;700&amp;family=Merriweather:wght@400;700&amp;family=Permanent+Marker&amp;family=JetBrains+Mono:wght@400;700&amp;display=swap');</style></defs><g transform="translate(-96, -96)"><g opacity="1"><rect x="100" y="100" width="180" height="120" fill="none" stroke="#000000" stroke-width="4"/><text x="190" y="126.8" font-size="28" font-family="Handlee, cursive" font-weight="bold" fill="#000000" text-anchor="middle" dominant-baseline="central">Selector</text><line x1="100" y1="153.6" x2="280" y2="153.6" stroke="#000000" stroke-width="4"/><line x1="100" y1="173.6" x2="280" y2="173.6" stroke="#000000" stroke-width="4"/><text x="110" y="183.6" font-size="25.2" font-family="Handlee, cursive" fill="#000000" text-anchor="start" dominant-baseline="hanging">select(k)</text></g><g opacity="1"><rect x="100" y="340" width="180" height="120" fill="none" stroke="#000000" stroke-width="4"/><text x="190" y="366.8" font-size="28" font-family="Handlee, cursive" font-weight="bold" fill="#000000" text-anchor="middle" dominant-baseline="central">Examples</text><line x1="100" y1="393.6" x2="280" y2="393.6" stroke="#000000" stroke-width="4"/><line x1="100" y1="413.6" x2="280" y2="413.6" stroke="#000000" stroke-width="4"/><text x="110" y="423.6" font-size="25.2" font-family="Handlee, cursive" fill="#000000" text-anchor="start" dominant-baseline="hanging">in → out</text></g><g opacity="1"><rect x="390" y="100" width="180" height="120" fill="none" stroke="#000000" stroke-width="4"/><text x="480" y="126.8" font-size="28" font-family="Handlee, cursive" font-weight="bold" fill="#000000" text-anchor="middle" dominant-baseline="central">Instruction</text><line x1="390" y1="153.6" x2="570" y2="153.6" stroke="#000000" stroke-width="4"/><line x1="390" y1="173.6" x2="570" y2="173.6" stroke="#000000" stroke-width="4"/></g><g opacity="1"><rect x="680" y="100" width="180" height="120" fill="none" stroke="#000000" stroke-width="4"/><text x="770" y="126.8" font-size="28" font-family="Handlee, cursive" font-weight="bold" fill="#000000" text-anchor="middle" dominant-baseline="central">Query</text><line x1="680" y1="153.6" x2="860" y2="153.6" stroke="#000000" stroke-width="4"/><line x1="680" y1="173.6" x2="860" y2="173.6" stroke="#000000" stroke-width="4"/></g><g opacity="1"><rect x="100" y="580" width="180" height="120" fill="none" stroke="#000000" stroke-width="4"/><text x="190" y="606.8" font-size="28" font-family="Handlee, cursive" font-weight="bold" fill="#000000" text-anchor="middle" dominant-baseline="central">Model</text><line x1="100" y1="633.6" x2="280" y2="633.6" stroke="#000000" stroke-width="4"/><line x1="100" y1="653.6" x2="280" y2="653.6" stroke="#000000" stroke-width="4"/><text x="110" y="663.6" font-size="25.2" font-family="Handlee, cursive" fill="#000000" text-anchor="start" dominant-baseline="hanging">complete()</text></g><g opacity="1"><g><path d="M 190 220 C 190 280, 190 280, 190 340" fill="none" stroke="#000000" stroke-width="4" stroke-linecap="round"/><g><path d="M189.38902991451323 339.86300346814096 C183.99186490477138 330.5804260058798, 178.2821815034475 322.2208014112719, 174.67640685476363 316.5865749890772 M189.44509543757886 340.2018673690036 C186.03151843748174 333.711100533508, 180.5964902460121 325.66530870617595, 176.04729233961552 316.5998142749858" stroke="#000000" stroke-width="4" fill="none"/></g><g><path d="M189.38902991451323 339.86300346814096 C194.4321213472735 330.65977976975074, 199.1626943884518 322.30015517514283, 202.67640685476363 316.5865749890772 M189.44509543757886 340.2018673690036 C194.57816556110163 333.4811221898499, 197.68978449325195 325.43533036251785, 204.04729233961552 316.5998142749858" stroke="#000000" stroke-width="4" fill="none"/></g></g><text x="190" y="280" fill="#000000" font-family="Handlee, cursive" font-size="28px" text-anchor="middle" dominant-baseline="central">static / retrieved</text></g><g opacity="1"><path d="M 438.571 220 C 438.571 400, 190 400, 190 580" fill="none" stroke="#000000" stroke-width="4" stroke-linecap="round"/><g><path d="M188.49300962500274 580.0676085073501 C184.41995391560357 572.5633519803279, 179.54415122152878 563.3283801399195, 177.89820694737136 556.0988452571299 M190.1075989464298 579.908743112348 C185.88657585210527 571.3573756818238, 179.66924706655914 563.7816262073529, 175.55753906164318 555.7193332721334" stroke="#000000" stroke-width="4" fill="none"/></g><g><path d="M188.49300962500274 580.0676085073501 C194.40388974522813 572.3403818943269, 199.51202288077783 563.1054100539186, 205.89820694737136 556.0988452571299 M190.1075989464298 579.908743112348 C195.5505758242252 571.2312819583107, 198.99724701079901 563.6555324838398, 203.55753906164318 555.7193332721334" stroke="#000000" stroke-width="4" fill="none"/></g></g><g opacity="1"><g><path d="M 172 460 C 172 520, 136 520, 136 580" fill="none" stroke="#000000" stroke-width="4" stroke-linecap="round"/><g><path d="M134.87062494643033 579.9367891382426 C133.61532888494412 572.7112854613501, 128.61651372972855 567.5805095265151, 121.12674497254193 554.8578582654562 M136.09790297504514 579.874508404173 C131.32933702365577 570.8024553036375, 125.41562085961074 563.3252239777825, 121.29103236552328 555.1746048682224" stroke="#000000" stroke-width="4" fill="none"/></g><g><path d="M134.87062494643033 579.9367891382426 C140.22743146538716 572.7613709808652, 141.84071889061462 567.6305950460302, 149.12674497254193 554.8578582654562 M136.09790297504514 579.874508404173 C141.43703188159586 570.9488382786571, 145.6310105754909 563.4716069528021, 149.29103236552328 555.1746048682224" stroke="#000000" stroke-width="4" fill="none"/></g></g><text x="154" y="520" fill="#000000" font-family="Handlee, cursive" font-size="28px" text-anchor="middle" dominant-baseline="central">shots</text></g><g opacity="1"><path d="M 694.857 220 C 694.857 445.429, 244 354.571, 244 580" fill="none" stroke="#000000" stroke-width="4" stroke-linecap="round"/><g><path d="M244.91099622286856 578.698674088344 C239.1158940107191 573.9372887875326, 236.41327418001387 564.9599766919202, 230.31003602780402 557.5003868217435 M243.1092567173764 580.9310044767335 C241.38038710463977 575.0583368497922, 238.2995712538827 568.1303288279703, 230.77657097857445 555.6089954615426" stroke="#000000" stroke-width="4" fill="none"/></g><g><path d="M244.91099622286856 578.698674088344 C248.35279334677404 573.965140550714, 254.88707285212374 564.9878284551016, 258.310036027804 557.5003868217435 M243.1092567173764 580.9310044767335 C247.9823987237755 575.0275873191862, 251.50359449215418 568.0995792973642, 258.77657097857445 555.6089954615426" stroke="#000000" stroke-width="4" fill="none"/></g></g></g><text x="384" y="639" text-anchor="middle" font-family="Handlee, cursive" font-size="16" fill="#9aa4b0">Made with yappydraw.com by Algorisys Technologies</text></svg>