<svg xmlns="http://www.w3.org/2000/svg" width="471.20000000000005" height="1009" viewBox="-119.60000000000002 0 471.20000000000005 1009" style="background-color: rgb(255, 255, 255);"><defs><style>@import url('https://fonts.googleapis.com/css2?family=Handlee&amp;family=Inter:wght@400;700&amp;family=Source+Code+Pro:wght@400;700&amp;family=Caveat:wght@400;700&amp;family=Poppins:wght@400;700&amp;family=Merriweather:wght@400;700&amp;family=Permanent+Marker&amp;family=JetBrains+Mono:wght@400;700&amp;display=swap');</style></defs><g transform="translate(-74, -96)"><g opacity="1"><rect x="100" y="100" width="180" height="120" fill="none" stroke="#000000" stroke-width="4"/><text x="190" y="126.8" font-size="28" font-family="Handlee, cursive" font-weight="bold" fill="#000000" text-anchor="middle" dominant-baseline="central">Client</text><line x1="100" y1="153.6" x2="280" y2="153.6" stroke="#000000" stroke-width="4"/><line x1="100" y1="173.6" x2="280" y2="173.6" stroke="#000000" stroke-width="4"/><text x="110" y="183.6" font-size="25.2" font-family="Handlee, cursive" fill="#000000" text-anchor="start" dominant-baseline="hanging">pay(dollars)</text></g><g opacity="1"><rect x="100" y="370" width="180" height="120" fill="none" stroke="#000000" stroke-width="4"/><line x1="100" y1="433.6" x2="280" y2="433.6" stroke="#000000" stroke-width="4"/><text x="190" y="390.988" font-size="19.599999999999998" font-family="Handlee, cursive" font-weight="normal" font-style="italic" fill="#000000" text-anchor="middle" dominant-baseline="central">«interface»</text><text x="190" y="412.612" font-size="28" font-family="Handlee, cursive" font-weight="bold" fill="#000000" text-anchor="middle" dominant-baseline="central">Target</text><text x="110" y="443.6" font-size="25.2" font-family="Handlee, cursive" fill="#000000" text-anchor="start" dominant-baseline="hanging">pay(dollars)</text></g><g opacity="1"><rect x="78" y="640" width="224" height="141" fill="none" stroke="#000000" stroke-width="4"/><text x="190" y="666.8" font-size="28" font-family="Handlee, cursive" font-weight="bold" fill="#000000" text-anchor="middle" dominant-baseline="central">Adapter</text><line x1="78" y1="693.6" x2="302" y2="693.6" stroke="#000000" stroke-width="4"/><line x1="78" y1="733.84" x2="302" y2="733.84" stroke="#000000" stroke-width="4"/><text x="88" y="703.6" font-size="25.2" font-family="Handlee, cursive" fill="#000000" text-anchor="start" dominant-baseline="hanging">-adaptee: Adaptee</text><text x="88" y="743.84" font-size="25.2" font-family="Handlee, cursive" fill="#000000" text-anchor="start" dominant-baseline="hanging">pay(dollars)</text></g><g opacity="1"><rect x="100" y="931" width="180" height="120" fill="none" stroke="#000000" stroke-width="4"/><text x="190" y="957.8" font-size="28" font-family="Handlee, cursive" font-weight="bold" fill="#000000" text-anchor="middle" dominant-baseline="central">Adaptee</text><line x1="100" y1="984.6" x2="280" y2="984.6" stroke="#000000" stroke-width="4"/><line x1="100" y1="1004.6" x2="280" y2="1004.6" stroke="#000000" stroke-width="4"/><text x="110" y="1014.6" font-size="25.2" font-family="Handlee, cursive" fill="#000000" text-anchor="start" dominant-baseline="hanging">charge(cents)</text></g><g opacity="1"><g><path d="M 190 220 C 190 295, 190 295, 190 370" fill="none" stroke="#000000" stroke-width="4" stroke-linecap="round"/><g><path d="M188.50489998422563 368.0271385554224 C185.00668413745433 361.2302139087388, 180.50983840426622 353.05410770961896, 177.22563118301332 344.19412393000397 M190.21024454850703 370.7146009830758 C187.46062154507095 364.19275791359047, 183.93496361912992 360.9910473335144, 175.5371143044904 345.79588074952784" stroke="#000000" stroke-width="4" fill="none"/></g><g><path d="M188.50489998422563 368.0271385554224 C194.59817264000145 361.02441351748945, 199.69281540936052 352.8483073183696, 205.22563118301332 344.19412393000397 M190.21024454850703 370.7146009830758 C193.20016713661906 364.2523286938006, 195.41405480222608 361.05061811372457, 203.5371143044904 345.79588074952784" stroke="#000000" stroke-width="4" fill="none"/></g></g><text x="190" y="295" fill="#000000" font-family="Handlee, cursive" font-size="28px" text-anchor="middle" dominant-baseline="central">uses</text></g><g opacity="1"><path d="M 190 490 C 190 565, 190 565, 190 640" fill="none" stroke="#000000" stroke-width="4" stroke-linecap="round" stroke-dasharray="10 10"/><polygon points="190.00,490.00 176.00,514.25 204.00,514.25" fill="#ffffff" stroke="#000000" stroke-width="4"/></g><g opacity="1"><g><path d="M 190 781 C 190 856, 190 856, 190 931" fill="none" stroke="#000000" stroke-width="4" stroke-linecap="round"/><g><path d="M190.62657913565636 932.6014572679996 C186.18435977013306 922.9170508569485, 184.27996375174718 917.3128689160956, 175.89121136069298 907.4148807047721 M190.1376384049654 930.943446084857 C185.54743978131634 923.0000710642734, 180.29885313559396 916.840731174131, 175.0377701073885 906.9521424441454" stroke="#000000" stroke-width="4" fill="none"/></g><g><path d="M190.62657913565636 932.6014572679996 C193.54131808192923 923.0977024340635, 198.99388037533953 917.4935204932106, 203.89121136069298 907.4148807047721 M190.1376384049654 930.943446084857 C194.29737014520984 922.8007157880464, 197.79871386338095 916.641375897904, 203.0377701073885 906.9521424441454" stroke="#000000" stroke-width="4" fill="none"/></g></g><text x="190" y="856" fill="#000000" font-family="Handlee, cursive" font-size="28px" text-anchor="middle" dominant-baseline="central">adaptee</text></g></g><text x="116" y="990" text-anchor="middle" font-family="Handlee, cursive" font-size="16" fill="#9aa4b0">Made with yappydraw.com by Algorisys Technologies</text></svg>