<svg xmlns="http://www.w3.org/2000/svg" width="471.20000000000005" height="1160" viewBox="-130.60000000000002 0 471.20000000000005 1160" style="background-color: rgb(255, 255, 255);"><defs><style>@import url('https://fonts.googleapis.com/css2?family=Handlee&amp;family=Inter:wght@400;700&amp;family=Source+Code+Pro:wght@400;700&amp;family=Caveat:wght@400;700&amp;family=Poppins:wght@400;700&amp;family=Merriweather:wght@400;700&amp;family=Permanent+Marker&amp;family=JetBrains+Mono:wght@400;700&amp;display=swap');</style></defs><g transform="translate(-85, -96)"><g opacity="1"><rect x="100" y="100" width="180" height="120" fill="none" stroke="#000000" stroke-width="4"/><text x="190" y="126.8" font-size="28" font-family="Handlee, cursive" font-weight="bold" fill="#000000" text-anchor="middle" dominant-baseline="central">Command</text><line x1="100" y1="153.6" x2="280" y2="153.6" stroke="#000000" stroke-width="4"/><line x1="100" y1="173.6" x2="280" y2="173.6" stroke="#000000" stroke-width="4"/><text x="110" y="183.6" font-size="25.2" font-family="Handlee, cursive" fill="#000000" text-anchor="start" dominant-baseline="hanging">issue()</text></g><g opacity="1"><rect x="100" y="335" width="180" height="141" fill="none" stroke="#000000" stroke-width="4"/><text x="190" y="361.8" font-size="28" font-family="Handlee, cursive" font-weight="bold" fill="#000000" text-anchor="middle" dominant-baseline="central">Aggregate</text><line x1="100" y1="388.6" x2="280" y2="388.6" stroke="#000000" stroke-width="4"/><line x1="100" y1="428.84000000000003" x2="280" y2="428.84000000000003" stroke="#000000" stroke-width="4"/><text x="110" y="398.6" font-size="25.2" font-family="Handlee, cursive" fill="#000000" text-anchor="start" dominant-baseline="hanging">-state</text><text x="110" y="438.84000000000003" font-size="25.2" font-family="Handlee, cursive" fill="#000000" text-anchor="start" dominant-baseline="hanging">apply(event)</text></g><g opacity="1"><rect x="89" y="591" width="202" height="141" fill="none" stroke="#000000" stroke-width="4"/><text x="190" y="617.8" font-size="28" font-family="Handlee, cursive" font-weight="bold" fill="#000000" text-anchor="middle" dominant-baseline="central">Event Store</text><line x1="89" y1="644.6" x2="291" y2="644.6" stroke="#000000" stroke-width="4"/><line x1="89" y1="684.84" x2="291" y2="684.84" stroke="#000000" stroke-width="4"/><text x="99" y="654.6" font-size="25.2" font-family="Handlee, cursive" fill="#000000" text-anchor="start" dominant-baseline="hanging">-events: Event[]</text><text x="99" y="694.84" font-size="25.2" font-family="Handlee, cursive" fill="#000000" text-anchor="start" dominant-baseline="hanging">append(e)</text></g><g opacity="1"><rect x="100" y="847" width="180" height="120" fill="none" stroke="#000000" stroke-width="4"/><text x="190" y="873.8" font-size="28" font-family="Handlee, cursive" font-weight="bold" fill="#000000" text-anchor="middle" dominant-baseline="central">Projection</text><line x1="100" y1="900.6" x2="280" y2="900.6" stroke="#000000" stroke-width="4"/><line x1="100" y1="920.6" x2="280" y2="920.6" stroke="#000000" stroke-width="4"/><text x="110" y="930.6" font-size="25.2" font-family="Handlee, cursive" fill="#000000" text-anchor="start" dominant-baseline="hanging">on(event)</text></g><g opacity="1"><rect x="100" y="1082" width="180" height="120" fill="none" stroke="#000000" stroke-width="4"/><text x="190" y="1108.8" font-size="28" font-family="Handlee, cursive" font-weight="bold" fill="#000000" text-anchor="middle" dominant-baseline="central">Read Model</text><line x1="100" y1="1135.6" x2="280" y2="1135.6" stroke="#000000" stroke-width="4"/><line x1="100" y1="1175.84" x2="280" y2="1175.84" stroke="#000000" stroke-width="4"/><text x="110" y="1145.6" font-size="25.2" font-family="Handlee, cursive" fill="#000000" text-anchor="start" dominant-baseline="hanging">-view</text></g><g opacity="1"><g><path d="M 179.747 220 C 179.747 275, 190 275, 190 330" fill="none" stroke="#000000" stroke-width="4" stroke-linecap="round"/><g><path d="M191.05577973276377 329.54348023980856 C184.74964973680724 321.1210277879703, 179.25811480261433 314.55750831188624, 175.9994559660554 307.4902261539218 M190.20045594498515 330.20892037823796 C186.19741332043034 321.89861500698373, 180.8596276212118 315.9551843565563, 176.10789601132274 305.9996512538609" stroke="#000000" stroke-width="4" fill="none"/></g><g><path d="M191.05577973276377 329.54348023980856 C194.1699425628041 320.90269073654895, 198.0987004546081 314.33917126046487, 203.9994559660554 307.4902261539218 M190.20045594498515 330.20892037823796 C194.94758994538407 321.62964075478953, 198.35998087111932 315.6862101043621, 204.10789601132274 305.9996512538609" stroke="#000000" stroke-width="4" fill="none"/></g></g><text x="184.873417721519" y="258.2" fill="#000000" font-family="Handlee, cursive" font-size="28px" text-anchor="middle" dominant-baseline="central">handled</text><text x="184.873417721519" y="291.8" fill="#000000" font-family="Handlee, cursive" font-size="28px" text-anchor="middle" dominant-baseline="central">by</text></g><g opacity="1"><g><path d="M 158.5 476 C 158.5 533.5, 154.65 533.5, 154.65 591" fill="none" stroke="#000000" stroke-width="4" stroke-linecap="round"/><g><path d="M153.15214398466048 591.9922835472971 C148.95976204063194 583.8983699535585, 145.94022161244797 577.0592383624812, 138.74938961826263 566.3875518503454 M153.91686222571877 591.7064976720139 C151.01068816805852 585.6545084630824, 148.6145232998453 581.7093334254315, 141.17336416859177 566.0630707886856" stroke="#000000" stroke-width="4" fill="none"/></g><g><path d="M153.15214398466048 591.9922835472971 C157.14192038971382 583.9998033131293, 162.30453831061172 577.160671722052, 166.74938961826263 566.3875518503454 M153.91686222571877 591.7064976720139 C156.69303368541077 585.8048986617229, 159.97921433454974 581.859723624072, 169.17336416859177 566.0630707886856" stroke="#000000" stroke-width="4" fill="none"/></g></g><text x="156.575" y="533.5" fill="#000000" font-family="Handlee, cursive" font-size="28px" text-anchor="middle" dominant-baseline="central">appends</text></g><g opacity="1"><g><path d="M 225.35 591 C 225.35 533.5, 221.5 533.5, 221.5 476" fill="none" stroke="#000000" stroke-width="4" stroke-linecap="round"/><g><path d="M222.5737260915339 477.83216443285346 C225.81401079490206 481.6321488831999, 228.4011787795218 489.5246134941775, 234.41709140315652 499.16783307428983 M222.05095065943897 476.9392817784101 C226.58548111867515 484.5197157943881, 231.63218521986514 493.21372185946984, 235.24575264565647 499.4746697892579" stroke="#000000" stroke-width="4" fill="none"/></g><g><path d="M222.5737260915339 477.83216443285346 C218.39275495528602 481.5570460330756, 213.55866710028968 489.44951064405325, 206.41709140315652 499.16783307428983 M222.05095065943897 476.9392817784101 C216.88785073783606 484.2711175525075, 212.2369244581869 492.96512361758926, 207.24575264565647 499.4746697892579" stroke="#000000" stroke-width="4" fill="none"/></g></g><text x="223.425" y="533.5" fill="#000000" font-family="Handlee, cursive" font-size="28px" text-anchor="middle" dominant-baseline="central">replay</text></g><g opacity="1"><g><path d="M 190 737 C 190 792, 190 792, 190 847" fill="none" stroke="#000000" stroke-width="4" stroke-linecap="round"/><g><path d="M188.2692299950868 845.0010928343982 C185.36588916430676 841.1133740187, 184.86702831021006 837.4653979254946, 177.77922384627163 823.6655720720854 M190.64274155255407 846.7774833375588 C185.5824830739361 838.5423366941847, 179.90708556180564 829.982654718209, 176.9144546603784 822.3921998196137" stroke="#000000" stroke-width="4" fill="none"/></g><g><path d="M188.2692299950868 845.0010928343982 C191.8908219425609 841.3688947725233, 197.91689386671834 837.7209186793178, 205.77922384627163 823.6655720720854 M190.64274155255407 846.7774833375588 C195.90460164794445 838.3776543804221, 200.55132270982236 829.8179724044464, 204.9144546603784 822.3921998196137" stroke="#000000" stroke-width="4" fill="none"/></g></g><text x="190" y="792" fill="#000000" font-family="Handlee, cursive" font-size="28px" text-anchor="middle" dominant-baseline="central">feeds</text></g><g opacity="1"><g><path d="M 190 967 C 190 1024.5, 190 1024.5, 190 1082" fill="none" stroke="#000000" stroke-width="4" stroke-linecap="round"/><g><path d="M190.71430700458586 1082.3134183641523 C185.93163012566328 1074.1690334434081, 181.22977336256116 1062.5638592891246, 175.3109719697386 1057.6792399461237 M190.01113464217633 1081.4803124936298 C187.11805574212298 1077.8407608468933, 184.64777056880368 1072.3688766192665, 175.64820169191808 1058.0951592714382" stroke="#000000" stroke-width="4" fill="none"/></g><g><path d="M190.71430700458586 1082.3134183641523 C196.0155503083235 1074.218695973644, 201.3976137278816 1062.6135218193604, 203.3109719697386 1057.6792399461237 M190.01113464217633 1081.4803124936298 C192.90690109457893 1077.7068020907518, 196.22546127371564 1072.234917863125, 203.64820169191808 1058.0951592714382" stroke="#000000" stroke-width="4" fill="none"/></g></g><text x="190" y="1024.5" fill="#000000" font-family="Handlee, cursive" font-size="28px" text-anchor="middle" dominant-baseline="central">updates</text></g></g><text x="105" y="1141" text-anchor="middle" font-family="Handlee, cursive" font-size="16" fill="#9aa4b0">Made with yappydraw.com by Algorisys Technologies</text></svg>